<?xml version="1.0" encoding="UTF-8"?>
<svg version="1.1" xmlns="http://www.w3.org/2000/svg" width="50" height="50">
<path d="M0 0 C4.29 0 8.58 0 13 0 C15.1476409 4.66878456 16.12288257 7.7372954 17 13 C27.23 13 37.46 13 48 13 C47.23332376 18.36673367 46.44071682 21.98935824 44.5 26.875 C43.83484375 28.57269531 43.83484375 28.57269531 43.15625 30.3046875 C42 33 42 33 41 34 C39.58429877 34.08651611 38.164405 34.10704904 36.74609375 34.09765625 C35.89208984 34.09443359 35.03808594 34.09121094 34.15820312 34.08789062 C33.26037109 34.07951172 32.36253906 34.07113281 31.4375 34.0625 C30.53580078 34.05798828 29.63410156 34.05347656 28.70507812 34.04882812 C26.46998686 34.03700225 24.23502563 34.0205222 22 34 C22.33 35.65 22.66 37.3 23 39 C23.85549438 39.03758423 23.85549438 39.03758423 24.72827148 39.07592773 C27.29826157 39.19156549 29.86785527 39.31443624 32.4375 39.4375 C33.33533203 39.47681641 34.23316406 39.51613281 35.15820312 39.55664062 C36.01220703 39.59853516 36.86621094 39.64042969 37.74609375 39.68359375 C38.53685303 39.72025146 39.3276123 39.75690918 40.14233398 39.79467773 C42 40 42 40 43 41 C43.125 44 43.125 44 43 47 C42 48 42 48 39 48.125 C36 48 36 48 35 47 C34.95936168 45.33382885 34.957279 43.66611905 35 42 C33.35 42 31.7 42 30 42 C30.020625 42.804375 30.04125 43.60875 30.0625 44.4375 C30 47 30 47 29 48 C27.00041636 48.04080783 24.99954746 48.04254356 23 48 C20.8889116 42.59728283 19.15808972 37.25331634 17.73828125 31.6328125 C17.54276169 30.87201385 17.34724213 30.11121521 17.14579773 29.32736206 C16.7379089 27.73635943 16.33215282 26.14480858 15.9284668 24.55273438 C15.30851461 22.10929222 14.68114152 19.66784238 14.05273438 17.2265625 C13.65581651 15.67458997 13.25931686 14.1225104 12.86328125 12.5703125 C12.6758284 11.84014923 12.48837555 11.10998596 12.29524231 10.35769653 C11 5.23188631 11 5.23188631 11 3 C8.69 2.67 6.38 2.34 4 2 C4 2.66 4 3.32 4 4 C2.68 4 1.36 4 0 4 C0 2.68 0 1.36 0 0 Z M17 15 C18.32 20.61 19.64 26.22 21 32 C26.94 32 32.88 32 39 32 C40.98 26.39 42.96 20.78 45 15 C35.76 15 26.52 15 17 15 Z M25 43 C25 43.66 25 44.32 25 45 C25.66 45 26.32 45 27 45 C27 44.34 27 43.68 27 43 C26.34 43 25.68 43 25 43 Z M38 43 C38 43.66 38 44.32 38 45 C38.66 45 39.32 45 40 45 C40 44.34 40 43.68 40 43 C39.34 43 38.68 43 38 43 Z " fill="#000000" transform="translate(0,2)"/>
</svg>
