<?xml version="1.0" encoding="UTF-8"?>
<svg version="1.1" xmlns="http://www.w3.org/2000/svg" width="50" height="50">
<path d="M0 0 C1.26714844 -0.02449219 2.53429687 -0.04898437 3.83984375 -0.07421875 C15.60717724 -0.11133968 15.60717724 -0.11133968 20.125 4.375 C23.50899487 9.65178782 22.49389877 16.21588756 22.5 22.25 C22.52449219 23.51714844 22.54898438 24.78429687 22.57421875 26.08984375 C22.61133968 37.85717724 22.61133968 37.85717724 18.125 42.375 C12.84821218 45.75899487 6.28411244 44.74389877 0.25 44.75 C-1.01714844 44.77449219 -2.28429687 44.79898438 -3.58984375 44.82421875 C-15.35717724 44.86133968 -15.35717724 44.86133968 -19.875 40.375 C-23.25899487 35.09821218 -22.24389877 28.53411244 -22.25 22.5 C-22.27449219 21.23285156 -22.29898437 19.96570313 -22.32421875 18.66015625 C-22.36133968 6.89282276 -22.36133968 6.89282276 -17.875 2.375 C-12.59821218 -1.00899487 -6.03411244 0.00610123 0 0 Z M-17.75 7.3125 C-20.32650863 12.03609916 -20.09090449 16.94105363 -20.125 22.1875 C-20.145625 22.96931641 -20.16625 23.75113281 -20.1875 24.55664062 C-20.22341487 29.93040236 -19.39032125 33.60751764 -16.875 38.375 C-12.09062987 43.00503561 -6.33429347 42.58424098 -0.0625 42.625 C0.71931641 42.645625 1.50113281 42.66625 2.30664062 42.6875 C7.68040236 42.72341487 11.35751764 41.89032125 16.125 39.375 C20.75503561 34.59062987 20.33424098 28.83429347 20.375 22.5625 C20.395625 21.78068359 20.41625 20.99886719 20.4375 20.19335938 C20.47341487 14.81959764 19.64032125 11.14248236 17.125 6.375 C12.34062987 1.74496439 6.58429347 2.16575902 0.3125 2.125 C-0.46931641 2.104375 -1.25113281 2.08375 -2.05664062 2.0625 C-8.08953652 2.02217989 -13.35627819 2.7723208 -17.75 7.3125 Z " fill="#000000" transform="translate(24.875,2.625)"/>
<path d="M0 0 C2.93423195 1.79646854 4.47205355 2.9441071 6 6 C6.53118252 10.91996928 6.75105553 14.77327597 4.125 19.0625 C0.38214851 22.47509989 -2.60769925 22.32843064 -7.515625 22.29296875 C-10.97198834 21.88537873 -12.68663869 20.53723498 -15 18 C-16.84862688 14.30274625 -16.47587094 10.03538558 -16 6 C-11.95766104 -0.60248696 -7.2842127 -0.85898735 0 0 Z M-11.5 4.5 C-13.62153384 8.03588973 -13.791013 10.97901723 -13 15 C-11.66666667 17.66666667 -11.66666667 17.66666667 -9 19 C-4.97901723 19.791013 -2.03588973 19.62153384 1.5 17.5 C3.62153384 13.96411027 3.791013 11.02098277 3 7 C1.66666667 4.33333333 1.66666667 4.33333333 -1 3 C-5.02098277 2.208987 -7.96411027 2.37846616 -11.5 4.5 Z " fill="#000000" transform="translate(30,14)"/>
<path d="M0 0 C1.32 0 2.64 0 4 0 C4 1.32 4 2.64 4 4 C2.68 4 1.36 4 0 4 C0 2.68 0 1.36 0 0 Z " fill="#000000" transform="translate(35,11)"/>
</svg>
