<?xml version="1.0" encoding="UTF-8"?>
<svg version="1.1" xmlns="http://www.w3.org/2000/svg" width="50" height="50">
<path d="M0 0 C5.01791684 2.41935276 8.49958655 5.9991731 11 11 C11.12318886 12.91372461 11.17557433 14.83235166 11.1875 16.75 C11.20167969 17.77609375 11.21585938 18.8021875 11.23046875 19.859375 C11 23 11 23 9 29 C12.63 32.63 16.26 36.26 20 40 C19.34 41.32 18.68 42.64 18 44 C13.32577962 42.08155581 10.62144974 38.49668206 7.31640625 34.80078125 C5.16829044 32.70955165 5.16829044 32.70955165 2.5859375 33.2109375 C1.30589844 33.60152344 1.30589844 33.60152344 0 34 C-5.58467617 34.45849966 -10.38548585 34.77842646 -15.5 32.3125 C-22.76311164 25.59412173 -22.76311164 25.59412173 -23.23828125 20.390625 C-23.48734758 9.85118657 -23.48734758 9.85118657 -19 5 C-12.83628287 -0.42994128 -8.09617809 -0.76299061 0 0 Z M-18 8 C-20.7579093 12.42376056 -20.64722237 16.942077 -20 22 C-17.83701163 26.40608743 -15.60319521 29.1987497 -11 31 C-5.95674616 31.68426057 -2.16923116 31.5739862 2.4375 29.3125 C6.65708311 25.50458354 8.17356691 22.79462733 8.5 17.125 C8.36469168 12.59217113 7.245325 9.91992346 4.484375 6.375 C0.58106111 2.75929872 -3.327925 2.51479029 -8.45703125 2.61328125 C-12.45750642 3.22164844 -15.27012589 5.05297681 -18 8 Z " fill="#000000" transform="translate(27,3)"/>
</svg>
