<?xml version="1.0" encoding="UTF-8"?>
<svg version="1.1" xmlns="http://www.w3.org/2000/svg" width="50" height="50">
<path d="M0 0 C3.13718768 1.20661065 5.21469319 0.68698996 8.4375 -0.0625 C9.125 3.25 9.125 3.25 9.4375 6.9375 C8.97601563 7.38222656 8.51453125 7.82695312 8.0390625 8.28515625 C5.75104005 10.64572575 5.68250197 12.85401927 5.125 16.0625 C3.2677304 24.71371955 -0.67705934 31.21784215 -7.66015625 36.71875 C-14.32040266 40.98568405 -21.8027702 41.94319486 -29.5625 40.9375 C-33.34656698 39.8516373 -36.95184728 38.50188338 -40.5625 36.9375 C-40.5625 35.9475 -40.5625 34.9575 -40.5625 33.9375 C-37.5925 33.2775 -34.6225 32.6175 -31.5625 31.9375 C-32.14 31.15375 -32.7175 30.37 -33.3125 29.5625 C-36.08994732 25.3813965 -40.1859916 19.09236747 -39.171875 13.9609375 C-38.97078125 13.29320312 -38.7696875 12.62546875 -38.5625 11.9375 C-38.49625493 10.18863019 -38.47697405 8.43747252 -38.5 6.6875 C-38.51353516 5.34945313 -38.51353516 5.34945313 -38.52734375 3.984375 C-38.53894531 3.30890625 -38.55054688 2.6334375 -38.5625 1.9375 C-36.7578125 1.26953125 -36.7578125 1.26953125 -34.5625 0.9375 C-32.9921875 2.01171875 -32.9921875 2.01171875 -31.4375 3.625 C-27.3400974 7.45459851 -22.81011702 9.14254046 -17.5625 10.9375 C-17.48 9.865 -17.3975 8.7925 -17.3125 7.6875 C-16.4996841 3.62342048 -15.79155115 2.40677441 -12.5625 -0.0625 C-8.23167252 -1.50610916 -4.26887218 -1.77002017 0 0 Z M-12.5625 3.9375 C-14.9919516 7.5816774 -14.72429575 9.64991272 -14.5625 13.9375 C-22.32771885 12.32138846 -28.85753214 10.22122947 -35.5625 5.9375 C-35.8791454 9.57889396 -35.8791454 9.57889396 -34.125 12.5625 C-33.609375 13.01625 -33.09375 13.47 -32.5625 13.9375 C-32.2325 14.9275 -31.9025 15.9175 -31.5625 16.9375 C-32.8825 17.2675 -34.2025 17.5975 -35.5625 17.9375 C-33.5825 19.5875 -31.6025 21.2375 -29.5625 22.9375 C-29.76875 23.55625 -29.975 24.175 -30.1875 24.8125 C-30.31125 25.51375 -30.435 26.215 -30.5625 26.9375 C-28.4239515 29.0760485 -27.42974686 29.36405063 -24.5625 29.9375 C-24.8925 30.9275 -25.2225 31.9175 -25.5625 32.9375 C-29.125 34.625 -29.125 34.625 -32.5625 35.9375 C-28.24798605 38.81384263 -24.62537387 38.50402555 -19.5625 37.9375 C-11.50432394 35.94088961 -5.94478762 31.94201334 -1.31640625 25.09375 C1.69283295 19.71459714 2.59265383 13.98481993 3.4375 7.9375 C2.7775 7.9375 2.1175 7.9375 1.4375 7.9375 C1.4375 6.9475 1.4375 5.9575 1.4375 4.9375 C-3.24267425 1.32707987 -7.52184515 0.63500199 -12.5625 3.9375 Z " fill="#000000" transform="translate(40.5625,6.0625)"/>
</svg>
